<svg width="16" height="17" viewBox="0 0 16 17" fill="none" xmlns="http://www.w3.org/2000/svg">
<g id="u:user">
<path id="Vector" d="M10.4733 8.97338C11.1269 8.45915 11.604 7.75399 11.8382 6.956C12.0723 6.15802 12.0519 5.30689 11.7799 4.52102C11.5078 3.73516 10.9975 3.05364 10.32 2.57128C9.64259 2.08892 8.83163 1.82971 8 1.82971C7.16836 1.82971 6.35741 2.08892 5.67995 2.57128C5.0025 3.05364 4.49223 3.73516 4.22014 4.52102C3.94805 5.30689 3.92767 6.15802 4.16184 6.956C4.396 7.75399 4.87307 8.45915 5.52666 8.97338C4.40672 9.42207 3.42952 10.1663 2.69926 11.1267C1.969 12.087 1.51304 13.2276 1.38 14.4267C1.37037 14.5143 1.37808 14.6028 1.40268 14.6874C1.42729 14.772 1.46831 14.8509 1.52341 14.9196C1.63468 15.0584 1.79652 15.1473 1.97333 15.1667C2.15014 15.1862 2.32744 15.1346 2.46621 15.0233C2.60499 14.912 2.69388 14.7502 2.71333 14.5734C2.85972 13.2702 3.48112 12.0666 4.45881 11.1926C5.4365 10.3186 6.70193 9.83539 8.01333 9.83539C9.32473 9.83539 10.5902 10.3186 11.5679 11.1926C12.5455 12.0666 13.1669 13.2702 13.3133 14.5734C13.3315 14.7372 13.4096 14.8885 13.5327 14.9981C13.6559 15.1076 13.8152 15.1677 13.98 15.1667H14.0533C14.2281 15.1466 14.3878 15.0582 14.4977 14.9209C14.6076 14.7835 14.6587 14.6083 14.64 14.4334C14.5063 13.2308 14.0479 12.0874 13.3139 11.1255C12.5799 10.1637 11.5979 9.41969 10.4733 8.97338ZM8 8.50004C7.47258 8.50004 6.95701 8.34364 6.51848 8.05063C6.07995 7.75761 5.73815 7.34113 5.53632 6.85387C5.33449 6.3666 5.28168 5.83042 5.38457 5.31313C5.48746 4.79585 5.74144 4.3207 6.11438 3.94776C6.48732 3.57482 6.96247 3.32084 7.47976 3.21795C7.99704 3.11505 8.53322 3.16786 9.02049 3.3697C9.50776 3.57153 9.92423 3.91332 10.2173 4.35186C10.5103 4.79039 10.6667 5.30596 10.6667 5.83338C10.6667 6.54062 10.3857 7.2189 9.88562 7.71899C9.38552 8.21909 8.70724 8.50004 8 8.50004Z" fill="#6B7280"/>
</g>
</svg>
